<svg width="850" height="850" viewBox="0 0 850 850" fill="none" xmlns="http://www.w3.org/2000/svg">
<path d="M52 62H799V787H52V62Z" fill="white"/>
<path d="M773.111 0H76.8894C34.425 0 0 34.425 0 76.8894V773.108C0 815.575 34.425 850 76.8894 850H773.108C815.575 850 850 815.575 850 773.108V76.8894C850 34.425 815.575 0 773.111 0ZM263.026 733.946C263.026 746.304 253.008 756.322 240.65 756.322H145.401C133.043 756.322 123.025 746.304 123.025 733.946V334.666C123.025 322.308 133.043 312.29 145.401 312.29H240.65C253.008 312.29 263.026 322.308 263.026 334.666V733.946ZM193.026 274.652C143.051 274.652 102.538 234.139 102.538 184.165C102.538 134.191 143.051 93.678 193.026 93.678C243 93.678 283.513 134.191 283.513 184.165C283.513 234.139 243.002 274.652 193.026 274.652ZM760.794 735.748C760.794 747.11 751.582 756.322 740.221 756.322H638.012C626.65 756.322 617.438 747.11 617.438 735.748V548.464C617.438 520.525 625.633 426.035 544.425 426.035C481.434 426.035 468.657 490.71 466.091 519.735V735.748C466.091 747.11 456.882 756.322 445.518 756.322H346.664C335.303 756.322 326.091 747.11 326.091 735.748V332.864C326.091 321.502 335.303 312.29 346.664 312.29H445.518C456.879 312.29 466.091 321.502 466.091 332.864V367.698C489.449 332.646 524.161 305.591 598.068 305.591C761.731 305.591 760.794 458.493 760.794 542.505V735.748Z" fill="#1A3D5F"/>
</svg>
