<svg width="1627" height="624" viewBox="0 0 1627 624" fill="none" xmlns="http://www.w3.org/2000/svg">
<rect width="1627" height="623.109" fill="#1A3D5F"/>
<rect x="32" y="36.0547" width="551" height="551" rx="275.5" fill="white"/>
<path d="M159.442 439.934H120.085L245.653 156L386.214 468.983H346.857L303.752 373.402H187.554L159.442 439.934Z" fill="#1A3D5F"/>
<path d="M285.01 187.861L270.017 156H458.369V187.861H388.089V415.57L350.606 336.856V187.861H285.01Z" fill="#1A3D5F"/>
<path d="M289.695 336.856H202.547L246.59 240.337L289.695 336.856Z" fill="#B7DBFF"/>
<path d="M697.616 155.976H662.032L656.144 173H637.328L669.456 83.528H690.32L722.448 173H703.504L697.616 155.976ZM692.752 141.64L679.824 104.264L666.896 141.64H692.752ZM801.401 102.088V173H783.353V164.04C781.049 167.112 778.02 169.544 774.265 171.336C770.596 173.043 766.585 173.896 762.233 173.896C756.686 173.896 751.78 172.744 747.513 170.44C743.246 168.051 739.876 164.595 737.401 160.072C735.012 155.464 733.817 150.003 733.817 143.688V102.088H751.737V141.128C751.737 146.76 753.145 151.112 755.961 154.184C758.777 157.171 762.617 158.664 767.481 158.664C772.43 158.664 776.313 157.171 779.129 154.184C781.945 151.112 783.353 146.76 783.353 141.128V102.088H801.401ZM839.946 116.808V151.112C839.946 153.501 840.501 155.251 841.61 156.36C842.805 157.384 844.767 157.896 847.498 157.896H855.818V173H844.554C829.45 173 821.898 165.661 821.898 150.984V116.808H813.45V102.088H821.898V84.552H839.946V102.088H855.818V116.808H839.946ZM900.195 174.152C893.368 174.152 887.224 172.659 881.763 169.672C876.302 166.6 871.992 162.291 868.835 156.744C865.763 151.197 864.227 144.797 864.227 137.544C864.227 130.291 865.806 123.891 868.963 118.344C872.206 112.797 876.6 108.531 882.147 105.544C887.694 102.472 893.88 100.936 900.707 100.936C907.534 100.936 913.72 102.472 919.267 105.544C924.814 108.531 929.166 112.797 932.323 118.344C935.566 123.891 937.187 130.291 937.187 137.544C937.187 144.797 935.523 151.197 932.195 156.744C928.952 162.291 924.515 166.6 918.883 169.672C913.336 172.659 907.107 174.152 900.195 174.152ZM900.195 158.536C903.438 158.536 906.467 157.768 909.283 156.232C912.184 154.611 914.488 152.221 916.195 149.064C917.902 145.907 918.755 142.067 918.755 137.544C918.755 130.803 916.963 125.64 913.379 122.056C909.88 118.387 905.571 116.552 900.451 116.552C895.331 116.552 891.022 118.387 887.523 122.056C884.11 125.64 882.403 130.803 882.403 137.544C882.403 144.285 884.067 149.491 887.395 153.16C890.808 156.744 895.075 158.536 900.195 158.536ZM1038.4 101.064C1047.1 101.064 1054.1 103.752 1059.39 109.128C1064.76 114.419 1067.45 121.843 1067.45 131.4V173H1049.53V133.832C1049.53 128.285 1048.12 124.061 1045.31 121.16C1042.49 118.173 1038.65 116.68 1033.79 116.68C1028.92 116.68 1025.04 118.173 1022.14 121.16C1019.32 124.061 1017.92 128.285 1017.92 133.832V173H999.996V133.832C999.996 128.285 998.588 124.061 995.772 121.16C992.956 118.173 989.116 116.68 984.252 116.68C979.303 116.68 975.377 118.173 972.476 121.16C969.66 124.061 968.252 128.285 968.252 133.832V173H950.332V102.088H968.252V110.664C970.556 107.677 973.5 105.331 977.084 103.624C980.753 101.917 984.764 101.064 989.116 101.064C994.663 101.064 999.612 102.259 1003.96 104.648C1008.32 106.952 1011.69 110.28 1014.08 114.632C1016.38 110.536 1019.71 107.251 1024.06 104.776C1028.5 102.301 1033.28 101.064 1038.4 101.064ZM1079.85 137.288C1079.85 130.12 1081.26 123.763 1084.07 118.216C1086.97 112.669 1090.86 108.403 1095.72 105.416C1100.67 102.429 1106.17 100.936 1112.23 100.936C1117.52 100.936 1122.13 102.003 1126.06 104.136C1130.07 106.269 1133.27 108.957 1135.66 112.2V102.088H1153.71V173H1135.66V162.632C1133.35 165.96 1130.15 168.733 1126.06 170.952C1122.05 173.085 1117.4 174.152 1112.11 174.152C1106.13 174.152 1100.67 172.616 1095.72 169.544C1090.86 166.472 1086.97 162.163 1084.07 156.616C1081.26 150.984 1079.85 144.541 1079.85 137.288ZM1135.66 137.544C1135.66 133.192 1134.8 129.48 1133.1 126.408C1131.39 123.251 1129.09 120.861 1126.19 119.24C1123.28 117.533 1120.17 116.68 1116.84 116.68C1113.51 116.68 1110.44 117.491 1107.62 119.112C1104.81 120.733 1102.51 123.123 1100.71 126.28C1099.01 129.352 1098.15 133.021 1098.15 137.288C1098.15 141.555 1099.01 145.309 1100.71 148.552C1102.51 151.709 1104.81 154.141 1107.62 155.848C1110.53 157.555 1113.6 158.408 1116.84 158.408C1120.17 158.408 1123.28 157.597 1126.19 155.976C1129.09 154.269 1131.39 151.88 1133.1 148.808C1134.8 145.651 1135.66 141.896 1135.66 137.544ZM1192.07 116.808V151.112C1192.07 153.501 1192.63 155.251 1193.74 156.36C1194.93 157.384 1196.89 157.896 1199.62 157.896H1207.94V173H1196.68C1181.58 173 1174.02 165.661 1174.02 150.984V116.808H1165.58V102.088H1174.02V84.552H1192.07V102.088H1207.94V116.808H1192.07ZM1229.92 93.64C1226.76 93.64 1224.12 92.6587 1221.98 90.696C1219.94 88.648 1218.91 86.1307 1218.91 83.144C1218.91 80.1573 1219.94 77.6827 1221.98 75.72C1224.12 73.672 1226.76 72.648 1229.92 72.648C1233.08 72.648 1235.68 73.672 1237.73 75.72C1239.86 77.6827 1240.93 80.1573 1240.93 83.144C1240.93 86.1307 1239.86 88.648 1237.73 90.696C1235.68 92.6587 1233.08 93.64 1229.92 93.64ZM1238.75 102.088V173H1220.83V102.088H1238.75ZM1287.95 174.152C1281.12 174.152 1274.97 172.659 1269.51 169.672C1264.05 166.6 1259.74 162.291 1256.59 156.744C1253.51 151.197 1251.98 144.797 1251.98 137.544C1251.98 130.291 1253.56 123.891 1256.71 118.344C1259.96 112.797 1264.35 108.531 1269.9 105.544C1275.44 102.472 1281.63 100.936 1288.46 100.936C1295.28 100.936 1301.47 102.472 1307.02 105.544C1312.56 108.531 1316.92 112.797 1320.07 118.344C1323.32 123.891 1324.94 130.291 1324.94 137.544C1324.94 144.797 1323.27 151.197 1319.94 156.744C1316.7 162.291 1312.27 166.6 1306.63 169.672C1301.09 172.659 1294.86 174.152 1287.95 174.152ZM1287.95 158.536C1291.19 158.536 1294.22 157.768 1297.03 156.232C1299.93 154.611 1302.24 152.221 1303.95 149.064C1305.65 145.907 1306.51 142.067 1306.51 137.544C1306.51 130.803 1304.71 125.64 1301.13 122.056C1297.63 118.387 1293.32 116.552 1288.2 116.552C1283.08 116.552 1278.77 118.387 1275.27 122.056C1271.86 125.64 1270.15 130.803 1270.15 137.544C1270.15 144.285 1271.82 149.491 1275.15 153.16C1278.56 156.744 1282.83 158.536 1287.95 158.536ZM1377.38 101.064C1385.83 101.064 1392.65 103.752 1397.86 109.128C1403.06 114.419 1405.67 121.843 1405.67 131.4V173H1387.75V133.832C1387.75 128.2 1386.34 123.891 1383.52 120.904C1380.71 117.832 1376.87 116.296 1372 116.296C1367.05 116.296 1363.13 117.832 1360.23 120.904C1357.41 123.891 1356 128.2 1356 133.832V173H1338.08V102.088H1356V110.92C1358.39 107.848 1361.42 105.459 1365.09 103.752C1368.84 101.96 1372.94 101.064 1377.38 101.064ZM1521.94 173L1512.22 163.4C1503.94 170.824 1493.83 174.536 1481.88 174.536C1475.31 174.536 1469.51 173.427 1464.47 171.208C1459.52 168.904 1455.68 165.704 1452.95 161.608C1450.22 157.427 1448.86 152.605 1448.86 147.144C1448.86 141.256 1450.52 135.965 1453.85 131.272C1457.18 126.579 1462.08 122.781 1468.57 119.88C1466.26 117.064 1464.6 114.376 1463.58 111.816C1462.55 109.171 1462.04 106.355 1462.04 103.368C1462.04 99.272 1463.11 95.6027 1465.24 92.36C1467.37 89.032 1470.4 86.4293 1474.33 84.552C1478.34 82.6747 1482.99 81.736 1488.28 81.736C1493.66 81.736 1498.26 82.76 1502.1 84.808C1505.94 86.856 1508.8 89.5867 1510.68 93C1512.56 96.4133 1513.37 100.211 1513.11 104.392H1495.7C1495.79 101.576 1495.11 99.4427 1493.66 97.992C1492.2 96.456 1490.24 95.688 1487.77 95.688C1485.38 95.688 1483.37 96.4133 1481.75 97.864C1480.22 99.2293 1479.45 101.021 1479.45 103.24C1479.45 105.373 1480.09 107.507 1481.37 109.64C1482.65 111.688 1484.74 114.248 1487.64 117.32L1510.17 139.592C1510.34 139.421 1510.47 139.251 1510.55 139.08C1510.64 138.909 1510.72 138.739 1510.81 138.568L1518.1 126.408H1536.79L1527.83 142.152C1526.12 145.48 1524.29 148.637 1522.33 151.624L1543.96 173H1521.94ZM1482.39 159.688C1489.39 159.688 1495.58 157.213 1500.95 152.264L1478.94 130.504C1470.66 134.173 1466.52 139.379 1466.52 146.12C1466.52 149.96 1467.97 153.203 1470.87 155.848C1473.77 158.408 1477.61 159.688 1482.39 159.688ZM677.502 275.656C686.888 275.656 695.123 277.491 702.206 281.16C709.374 284.829 714.878 290.077 718.718 296.904C722.643 303.645 724.606 311.496 724.606 320.456C724.606 329.416 722.643 337.267 718.718 344.008C714.878 350.664 709.374 355.827 702.206 359.496C695.123 363.165 686.888 365 677.502 365H646.27V275.656H677.502ZM676.862 349.768C686.248 349.768 693.502 347.208 698.622 342.088C703.742 336.968 706.302 329.757 706.302 320.456C706.302 311.155 703.742 303.901 698.622 298.696C693.502 293.405 686.248 290.76 676.862 290.76H664.19V349.768H676.862ZM733.411 329.288C733.411 322.12 734.819 315.763 737.635 310.216C740.537 304.669 744.42 300.403 749.284 297.416C754.233 294.429 759.737 292.936 765.796 292.936C771.086 292.936 775.694 294.003 779.62 296.136C783.63 298.269 786.83 300.957 789.22 304.2V294.088H807.268V365H789.22V354.632C786.916 357.96 783.716 360.733 779.62 362.952C775.609 365.085 770.958 366.152 765.668 366.152C759.694 366.152 754.233 364.616 749.284 361.544C744.42 358.472 740.537 354.163 737.635 348.616C734.819 342.984 733.411 336.541 733.411 329.288ZM789.22 329.544C789.22 325.192 788.366 321.48 786.66 318.408C784.953 315.251 782.649 312.861 779.748 311.24C776.846 309.533 773.732 308.68 770.404 308.68C767.076 308.68 764.004 309.491 761.188 311.112C758.372 312.733 756.068 315.123 754.276 318.28C752.569 321.352 751.716 325.021 751.716 329.288C751.716 333.555 752.569 337.309 754.276 340.552C756.068 343.709 758.372 346.141 761.188 347.848C764.089 349.555 767.161 350.408 770.404 350.408C773.732 350.408 776.846 349.597 779.748 347.976C782.649 346.269 784.953 343.88 786.66 340.808C788.366 337.651 789.22 333.896 789.22 329.544ZM845.634 308.808V343.112C845.634 345.501 846.188 347.251 847.298 348.36C848.492 349.384 850.455 349.896 853.186 349.896H861.506V365H850.242C835.138 365 827.586 357.661 827.586 342.984V308.808H819.138V294.088H827.586V276.552H845.634V294.088H861.506V308.808H845.634ZM869.786 329.288C869.786 322.12 871.194 315.763 874.01 310.216C876.912 304.669 880.795 300.403 885.659 297.416C890.608 294.429 896.112 292.936 902.171 292.936C907.461 292.936 912.069 294.003 915.995 296.136C920.005 298.269 923.205 300.957 925.595 304.2V294.088H943.643V365H925.595V354.632C923.291 357.96 920.091 360.733 915.995 362.952C911.984 365.085 907.333 366.152 902.043 366.152C896.069 366.152 890.608 364.616 885.659 361.544C880.795 358.472 876.912 354.163 874.01 348.616C871.194 342.984 869.786 336.541 869.786 329.288ZM925.595 329.544C925.595 325.192 924.741 321.48 923.035 318.408C921.328 315.251 919.024 312.861 916.123 311.24C913.221 309.533 910.107 308.68 906.779 308.68C903.451 308.68 900.379 309.491 897.562 311.112C894.747 312.733 892.443 315.123 890.651 318.28C888.944 321.352 888.091 325.021 888.091 329.288C888.091 333.555 888.944 337.309 890.651 340.552C892.443 343.709 894.747 346.141 897.562 347.848C900.464 349.555 903.536 350.408 906.779 350.408C910.107 350.408 913.221 349.597 916.123 347.976C919.024 346.269 921.328 343.88 923.035 340.808C924.741 337.651 925.595 333.896 925.595 329.544ZM1022.49 365.896C1016.26 365.896 1010.63 364.829 1005.6 362.696C1000.65 360.563 996.722 357.491 993.821 353.48C990.919 349.469 989.426 344.733 989.341 339.272H1008.54C1008.8 342.941 1010.08 345.843 1012.38 347.976C1014.77 350.109 1018.01 351.176 1022.11 351.176C1026.29 351.176 1029.58 350.195 1031.96 348.232C1034.35 346.184 1035.55 343.539 1035.55 340.296C1035.55 337.651 1034.74 335.475 1033.12 333.768C1031.5 332.061 1029.45 330.739 1026.97 329.8C1024.58 328.776 1021.26 327.667 1016.99 326.472C1011.19 324.765 1006.45 323.101 1002.78 321.48C999.197 319.773 996.082 317.256 993.437 313.928C990.877 310.515 989.597 305.992 989.597 300.36C989.597 295.069 990.919 290.461 993.565 286.536C996.21 282.611 999.922 279.624 1004.7 277.576C1009.48 275.443 1014.94 274.376 1021.08 274.376C1030.3 274.376 1037.77 276.637 1043.48 281.16C1049.29 285.597 1052.49 291.827 1053.08 299.848H1033.37C1033.2 296.776 1031.88 294.259 1029.4 292.296C1027.02 290.248 1023.82 289.224 1019.8 289.224C1016.31 289.224 1013.49 290.12 1011.36 291.912C1009.31 293.704 1008.28 296.307 1008.28 299.72C1008.28 302.109 1009.05 304.115 1010.59 305.736C1012.21 307.272 1014.17 308.552 1016.48 309.576C1018.87 310.515 1022.19 311.624 1026.46 312.904C1032.26 314.611 1037 316.317 1040.67 318.024C1044.34 319.731 1047.5 322.291 1050.14 325.704C1052.79 329.117 1054.11 333.597 1054.11 339.144C1054.11 343.923 1052.87 348.36 1050.4 352.456C1047.92 356.552 1044.3 359.837 1039.52 362.312C1034.74 364.701 1029.06 365.896 1022.49 365.896ZM1137.48 294.088L1093.58 398.536H1074.51L1089.87 363.208L1061.45 294.088H1081.55L1099.85 343.624L1118.41 294.088H1137.48ZM1174.28 366.152C1168.48 366.152 1163.27 365.128 1158.66 363.08C1154.06 360.947 1150.39 358.088 1147.66 354.504C1145.01 350.92 1143.56 346.952 1143.3 342.6H1161.35C1161.69 345.331 1163.02 347.592 1165.32 349.384C1167.71 351.176 1170.65 352.072 1174.15 352.072C1177.57 352.072 1180.21 351.389 1182.09 350.024C1184.05 348.659 1185.03 346.909 1185.03 344.776C1185.03 342.472 1183.84 340.765 1181.45 339.656C1179.14 338.461 1175.43 337.181 1170.31 335.816C1165.02 334.536 1160.67 333.213 1157.26 331.848C1153.93 330.483 1151.03 328.392 1148.55 325.576C1146.16 322.76 1144.97 318.963 1144.97 314.184C1144.97 310.259 1146.08 306.675 1148.3 303.432C1150.6 300.189 1153.84 297.629 1158.02 295.752C1162.29 293.875 1167.28 292.936 1173 292.936C1181.45 292.936 1188.19 295.069 1193.22 299.336C1198.26 303.517 1201.03 309.192 1201.54 316.36H1184.39C1184.14 313.544 1182.94 311.325 1180.81 309.704C1178.76 307.997 1175.99 307.144 1172.49 307.144C1169.25 307.144 1166.73 307.741 1164.94 308.936C1163.23 310.131 1162.38 311.795 1162.38 313.928C1162.38 316.317 1163.57 318.152 1165.96 319.432C1168.35 320.627 1172.06 321.864 1177.1 323.144C1182.22 324.424 1186.44 325.747 1189.77 327.112C1193.1 328.477 1195.96 330.611 1198.34 333.512C1200.82 336.328 1202.1 340.083 1202.18 344.776C1202.18 348.872 1201.03 352.541 1198.73 355.784C1196.51 359.027 1193.27 361.587 1189 363.464C1184.82 365.256 1179.91 366.152 1174.28 366.152ZM1237.76 308.808V343.112C1237.76 345.501 1238.31 347.251 1239.42 348.36C1240.62 349.384 1242.58 349.896 1245.31 349.896H1253.63V365H1242.37C1227.26 365 1219.71 357.661 1219.71 342.984V308.808H1211.26V294.088H1219.71V276.552H1237.76V294.088H1253.63V308.808H1237.76ZM1332.44 328.008C1332.44 330.568 1332.27 332.872 1331.93 334.92H1280.09C1280.51 340.04 1282.31 344.051 1285.46 346.952C1288.62 349.853 1292.5 351.304 1297.11 351.304C1303.77 351.304 1308.5 348.445 1311.32 342.728H1330.65C1328.6 349.555 1324.67 355.187 1318.87 359.624C1313.07 363.976 1305.94 366.152 1297.5 366.152C1290.67 366.152 1284.52 364.659 1279.06 361.672C1273.69 358.6 1269.46 354.291 1266.39 348.744C1263.4 343.197 1261.91 336.797 1261.91 329.544C1261.91 322.205 1263.4 315.763 1266.39 310.216C1269.38 304.669 1273.56 300.403 1278.94 297.416C1284.31 294.429 1290.5 292.936 1297.5 292.936C1304.24 292.936 1310.25 294.387 1315.54 297.288C1320.92 300.189 1325.06 304.328 1327.96 309.704C1330.95 314.995 1332.44 321.096 1332.44 328.008ZM1313.88 322.888C1313.79 318.28 1312.13 314.611 1308.89 311.88C1305.64 309.064 1301.68 307.656 1296.98 307.656C1292.55 307.656 1288.79 309.021 1285.72 311.752C1282.73 314.397 1280.9 318.109 1280.22 322.888H1313.88ZM1433.58 293.064C1442.29 293.064 1449.28 295.752 1454.58 301.128C1459.95 306.419 1462.64 313.843 1462.64 323.4V365H1444.72V325.832C1444.72 320.285 1443.31 316.061 1440.5 313.16C1437.68 310.173 1433.84 308.68 1428.98 308.68C1424.11 308.68 1420.23 310.173 1417.33 313.16C1414.51 316.061 1413.1 320.285 1413.1 325.832V365H1395.18V325.832C1395.18 320.285 1393.78 316.061 1390.96 313.16C1388.14 310.173 1384.3 308.68 1379.44 308.68C1374.49 308.68 1370.56 310.173 1367.66 313.16C1364.85 316.061 1363.44 320.285 1363.44 325.832V365H1345.52V294.088H1363.44V302.664C1365.74 299.677 1368.69 297.331 1372.27 295.624C1375.94 293.917 1379.95 293.064 1384.3 293.064C1389.85 293.064 1394.8 294.259 1399.15 296.648C1403.5 298.952 1406.87 302.28 1409.26 306.632C1411.57 302.536 1414.9 299.251 1419.25 296.776C1423.68 294.301 1428.46 293.064 1433.58 293.064ZM1506.78 366.152C1500.98 366.152 1495.77 365.128 1491.16 363.08C1486.56 360.947 1482.89 358.088 1480.16 354.504C1477.51 350.92 1476.06 346.952 1475.8 342.6H1493.85C1494.19 345.331 1495.52 347.592 1497.82 349.384C1500.21 351.176 1503.15 352.072 1506.65 352.072C1510.07 352.072 1512.71 351.389 1514.59 350.024C1516.55 348.659 1517.53 346.909 1517.53 344.776C1517.53 342.472 1516.34 340.765 1513.95 339.656C1511.64 338.461 1507.93 337.181 1502.81 335.816C1497.52 334.536 1493.17 333.213 1489.76 331.848C1486.43 330.483 1483.53 328.392 1481.05 325.576C1478.66 322.76 1477.47 318.963 1477.47 314.184C1477.47 310.259 1478.58 306.675 1480.8 303.432C1483.1 300.189 1486.34 297.629 1490.52 295.752C1494.79 293.875 1499.78 292.936 1505.5 292.936C1513.95 292.936 1520.69 295.069 1525.72 299.336C1530.76 303.517 1533.53 309.192 1534.04 316.36H1516.89C1516.64 313.544 1515.44 311.325 1513.31 309.704C1511.26 307.997 1508.49 307.144 1504.99 307.144C1501.75 307.144 1499.23 307.741 1497.44 308.936C1495.73 310.131 1494.88 311.795 1494.88 313.928C1494.88 316.317 1496.07 318.152 1498.46 319.432C1500.85 320.627 1504.56 321.864 1509.6 323.144C1514.72 324.424 1518.94 325.747 1522.27 327.112C1525.6 328.477 1528.46 330.611 1530.84 333.512C1533.32 336.328 1534.6 340.083 1534.68 344.776C1534.68 348.872 1533.53 352.541 1531.23 355.784C1529.01 359.027 1525.77 361.587 1521.5 363.464C1517.32 365.256 1512.41 366.152 1506.78 366.152Z" fill="white"/>
<rect x="840.891" y="448" width="143.109" height="143.109" rx="71.5547" fill="#376897"/>
<g clip-path="url(#clip0_356_9)">
<path d="M888.779 543.221H944V551.109H880.891V488H888.779V543.221ZM898.64 539.276C897.84 539.278 897.049 539.117 896.313 538.804C895.577 538.491 894.912 538.032 894.358 537.455C893.805 536.878 893.374 536.195 893.092 535.446C892.81 534.698 892.683 533.9 892.717 533.101C892.752 532.302 892.949 531.519 893.295 530.798C893.642 530.077 894.13 529.434 894.732 528.907C895.334 528.381 896.037 527.981 896.797 527.734C897.558 527.486 898.36 527.396 899.157 527.467L905.515 516.869C904.934 515.976 904.604 514.942 904.561 513.878C904.519 512.813 904.764 511.757 905.272 510.82C905.78 509.884 906.531 509.101 907.447 508.556C908.362 508.011 909.408 507.724 910.473 507.724C911.539 507.724 912.584 508.011 913.5 508.556C914.415 509.101 915.167 509.884 915.674 510.82C916.182 511.757 916.428 512.813 916.385 513.878C916.342 514.942 916.013 515.976 915.431 516.869L921.789 527.467C922.091 527.44 922.395 527.437 922.697 527.459L933.196 509.086C932.442 507.981 932.084 506.653 932.182 505.318C932.28 503.983 932.827 502.721 933.735 501.738C934.643 500.754 935.857 500.108 937.179 499.903C938.502 499.699 939.855 499.949 941.017 500.613C942.179 501.276 943.082 502.314 943.578 503.557C944.074 504.8 944.134 506.175 943.748 507.456C943.362 508.737 942.554 509.85 941.454 510.613C940.354 511.375 939.028 511.742 937.693 511.654L927.193 530.027C927.796 530.912 928.148 531.944 928.211 533.013C928.274 534.082 928.046 535.148 927.55 536.097C927.055 537.047 926.311 537.844 925.398 538.404C924.485 538.963 923.437 539.265 922.366 539.276C921.296 539.287 920.242 539.008 919.317 538.467C918.393 537.926 917.633 537.145 917.118 536.206C916.603 535.267 916.352 534.206 916.393 533.136C916.433 532.066 916.763 531.027 917.348 530.129L910.99 519.531C910.646 519.563 910.3 519.563 909.956 519.531L903.598 530.129C904.18 531.022 904.51 532.056 904.553 533.121C904.596 534.186 904.351 535.242 903.843 536.179C903.335 537.116 902.584 537.899 901.668 538.444C900.752 538.989 899.706 539.277 898.64 539.276Z" fill="white"/>
</g>
<rect x="1016" y="448.034" width="146.891" height="143.042" rx="71.5211" fill="#376897"/>
<path d="M1038 519.552L1060.31 497.243L1066.68 503.616L1050.75 519.552L1066.68 535.489L1060.31 541.862L1038 519.552ZM1074.96 558.89L1095.18 478.034L1103.92 480.219L1083.71 561.076L1074.96 558.89ZM1112.2 535.489L1128.14 519.552L1112.2 503.616L1118.58 497.243L1140.89 519.552L1118.58 541.862L1112.2 535.489Z" fill="white"/>
<rect x="1194.89" y="448.447" width="142.218" height="142.216" rx="71.1081" fill="#376897"/>
<path d="M1275.82 496.632L1288.92 509.73M1239.8 534.29L1251.26 545.751M1246.35 539.202L1282.37 503.181M1238.17 534.29L1284.01 488.447L1297.11 501.543L1251.26 547.388L1234.89 550.663L1238.17 534.29Z" stroke="white" stroke-width="5" stroke-linecap="round" stroke-linejoin="round"/>
<defs>
<clipPath id="clip0_356_9">
<rect width="63.1094" height="63.1094" fill="white" transform="translate(880.891 488)"/>
</clipPath>
</defs>
</svg>
