<svg width="800" height="628" viewBox="0 0 800 628" fill="none" xmlns="http://www.w3.org/2000/svg">
<path d="M797.934 89.3953C794.328 71.2297 786.273 54.6063 775.025 40.8734C772.653 37.8813 770.175 35.2016 767.489 32.5219C747.559 12.4937 719.587 0 689.03 0H110.97C80.4125 0 52.5406 12.4937 32.5172 32.5219C29.8375 35.2016 27.3594 37.8813 24.9813 40.8734C13.7266 54.6047 5.67188 71.2297 2.16563 89.3953C0.725 96.4063 0 103.652 0 110.977V516.966C0 532.541 3.30312 547.512 9.19375 561.033C14.6578 573.939 22.7141 585.617 32.5156 595.409C35 597.887 37.4672 600.166 40.1594 602.431C59.3562 618.33 84.1359 627.931 110.97 627.931H689.03C715.873 627.931 740.761 618.33 759.847 602.331C762.531 600.166 765.011 597.887 767.489 595.409C777.286 585.617 785.341 573.939 790.917 561.033V560.933C796.806 547.412 799.998 532.541 799.998 516.967V110.977C800 103.652 799.286 96.4063 797.934 89.3953ZM72.6703 72.6703C82.5844 62.7672 95.8984 56.7719 110.97 56.7719H689.03C704.102 56.7719 717.533 62.7672 727.33 72.6703C729.083 74.4344 730.734 76.4 732.192 78.3531L429.213 342.408C420.856 349.731 410.534 353.348 400 353.348C389.572 353.348 379.256 349.731 370.789 342.408L67.925 78.2406C69.2656 76.2875 70.9172 74.4344 72.6703 72.6703ZM56.7719 516.966V136.989L276.028 328.262L56.8828 519.333C56.7719 518.608 56.7719 517.792 56.7719 516.966ZM689.03 571.148H110.97C101.156 571.148 91.9734 568.569 84.1359 564.036L315.352 362.538L336.938 381.316C355.002 397.013 377.606 404.962 400 404.962C422.509 404.962 445.113 397.013 463.175 381.316L484.75 362.538L715.875 564.036C708.027 568.569 698.844 571.148 689.03 571.148ZM743.228 516.966C743.228 517.792 743.228 518.608 743.122 519.333L523.978 328.373L743.228 137.091V516.966Z" fill="white"/>
</svg>
